# xmcd
# Copyright (C) 1995-1998 Ti Kan
#
# Track frame offsets:
#       150
#       14450
#       32360
#       59825
#       79365
#       96610
#       115085
#       145485
#       170817
#       182572
#       199927
#
# Disc length: 2997 seconds
#
# Revision: 0
# Processed by: cddbd v1.4PL0 Copyright (c) Steve Scherf et al.
# Submitted via: CD-Transfer v1.0
#
DISCID=a30bb30b
DTITLE=Bäck Tu Dä Ruuts - Bäck Tu Dä Ruuts
DYEAR=1997
DGENRE=
TTITLE0=Fastfuud
TTITLE1=Täg, Wo Alles Schiefgod
TTITLE2=Scho So Lang
TTITLE3=Dinosaurier
TTITLE4=Morgemuffel
TTITLE5=Dynamit
TTITLE6=Si Hed De Blues
TTITLE7=Säg, Wa D Hesch
TTITLE8=Diätlisi
TTITLE9=Nor Wäg Der
TTITLE10=Zahtüfeli
EXTD=
EXTT0=
EXTT1=
EXTT2=
EXTT3=
EXTT4=
EXTT5=
EXTT6=
EXTT7=
EXTT8=
EXTT9=
EXTT10=
PLAYORDER=
